# xmcd CD database file
#
# Track frame offsets:
#	182
#	29542
#	42442
#	69727
#	86172
#	103220
#	130512
#	141525
#	172632
#	188632
#	201412
#	242075
#	259152
#	291645
#
# Disc length: 4273 seconds
#
# Revision: 7
# Processed by: cddbd v1.5.2PL0 Copyright (c) Steve Scherf et al.
# Submitted via: CDex 1.70beta2
#
DISCID=da10af0e
DTITLE=Shirley Horn - You Won't Forget Me
DYEAR=1991
DGENRE=Jazz Vocals
TTITLE0=The Music That Makes Me Dance - Jule Styne, Bob Merrill 
TTITLE1=Come Dance With MeCome dance with me - Jimmy Van Heusen, Sammy Cahn
TTITLE2=Don't Let the Sun Catch You Cryin' - Joe Greene
TTITLE3=Beautiful Love - H. Gillespie, V. Young, W. King, E. Van Alstyne
TTITLE4=Come Back To Me - Burton Lane, Alan Jay Lerner
TTITLE5=Too Late Now - Burton Lane, Alan Jay Lerner
TTITLE6=I Just Found Out About Love - Jimmy McHugh, Harold Adamson
TTITLE7=It Had To Be You - Gus Kahn, Isham Jones
TTITLE8=Soothe Me - Joe Greene
TTITLE9=Foolin' Myself - Jack Lawrence, Pete Tinturin
TTITLE10=If You Go - G. Parsons, M. Emer
TTITLE11=You Stepped Out of A Dream - Nacio Herb Brown, Gus Kahn
TTITLE12=You Won't Forget Me - K. Goell, F. Spielman
TTITLE13=All My Tomorrows - Jimmy Van Heusen, Sammy Cahn
EXTD=YEAR: 1991
EXTT0=
EXTT1=
EXTT2=
EXTT3=
EXTT4=
EXTT5=
EXTT6=
EXTT7=
EXTT8=
EXTT9=
EXTT10=
EXTT11=
EXTT12=
EXTT13=
PLAYORDER=
